<?xml version="1.0" encoding="utf-8"?>
<!-- Generator: Adobe Illustrator 23.0.0, SVG Export Plug-In . SVG Version: 6.00 Build 0)  -->
<svg version="1.1" id="Capa_1" xmlns="http://www.w3.org/2000/svg" xmlns:xlink="http://www.w3.org/1999/xlink" x="0px" y="0px"
	 viewBox="0 0 50 50" style="enable-background:new 0 0 50 50;" xml:space="preserve">
<style type="text/css">
	.st0{fill:#FFFFFF;}
	.st1{fill:#161D2B;}
</style>
<path class="st0" d="M25.5,48.2h-0.9C11.7,48.2,1.3,37.8,1.3,25l0,0c0-12.8,10.4-23.2,23.2-23.2h0.9c12.8,0,23.2,10.4,23.2,23.2l0,0
	C48.7,37.8,38.3,48.2,25.5,48.2z"/>
<path class="st0" d="M25.5,48.2h-0.9C11.7,48.2,1.3,37.8,1.3,25l0,0c0-12.8,10.4-23.2,23.2-23.2h0.9c12.8,0,23.2,10.4,23.2,23.2l0,0
	C48.7,37.8,38.3,48.2,25.5,48.2z"/>
<path class="st1" d="M25.5,49.5h-0.9C11,49.5,0,38.5,0,25S11,0.5,24.5,0.5h0.9C39,0.5,50,11.5,50,25S39,49.5,25.5,49.5z M24.6,5.4
	C13.8,5.4,5,14.2,5,25s8.8,19.6,19.6,19.6h0.8C36.2,44.6,45,35.8,45,25S36.2,5.4,25.4,5.4C25.4,5.4,24.6,5.4,24.6,5.4z"/>
<path class="st1" d="M29.7,24.6l4.1-4.1c0.6-0.6,0.6-1.5,0-2.1L32.4,17c-0.6-0.6-1.5-0.6-2.1,0l-4.2,4c-0.6,0.6-1.5,0.6-2.1,0
	l-4.1-4.1c-0.6-0.6-1.5-0.6-2.1,0l-1.4,1.4c-0.6,0.6-0.6,1.5,0,2.1l4.1,4.1c0.6,0.6,0.6,1.5,0,2.1l-4.1,4.1c-0.6,0.6-0.6,1.5,0,2.1
	l1.4,1.4c0.6,0.6,1.5,0.6,2.1,0l4.1-4.1c0.6-0.6,1.5-0.6,2.1,0l4.1,4.1c0.6,0.6,1.5,0.6,2.1,0l1.4-1.4c0.6-0.6,0.6-1.5,0-2.1
	l-4.1-4.1C29.1,26.1,29.1,25.2,29.7,24.6z"/>
</svg>
